<svg xmlns="http://www.w3.org/2000/svg" version="1.1" xmlns:xlink="http://www.w3.org/1999/xlink" xmlns:svgjs="http://svgjs.com/svgjs" width="1440" height="560" preserveAspectRatio="none" viewBox="0 0 1440 560"><g mask="url(&quot;#SvgjsMask1057&quot;)" fill="none"><rect width="1440" height="560" x="0" y="0" fill="rgba(12, 18, 31, 1)"></rect><path d="M0,474.488C102.262,466.554,204.193,501.677,301.427,469.029C416.212,430.487,541.489,380.127,598.756,273.443C656.625,165.637,619.256,34.555,599.464,-86.19C580.028,-204.758,562.004,-328.026,485.04,-420.29C407.411,-513.351,290.801,-560.237,174.792,-595.287C58.057,-630.557,-65.996,-657.584,-182.642,-622.021C-298.76,-586.619,-397.959,-503.623,-462.7,-400.932C-522.841,-305.537,-526.474,-188.543,-527.02,-75.774C-527.506,24.554,-496.812,117.291,-465.671,212.665C-430.493,320.403,-431.854,462.709,-333.062,518.254C-233.439,574.267,-113.948,483.328,0,474.488" fill="#080c14"></path><path d="M1440 963.126C1516.588 958.798 1586.38 929.0129999999999 1654.5720000000001 893.881 1729.242 855.4110000000001 1823.035 827.191 1854.788 749.427 1886.508 671.744 1820.093 589.992 1812.79 506.401 1804.878 415.836 1869.713 307.943 1810.214 239.20800000000003 1750.723 170.481 1634.616 219.394 1546.176 198.39600000000002 1464.188 178.93 1395.045 114.507 1311.005 120.68200000000002 1218.695 127.46499999999997 1120.404 160.76999999999998 1063.607 233.85399999999998 1007.366 306.224 1008.225 407.918 1016.871 499.163 1024.29 577.457 1076.084 639.737 1108.843 711.234 1141.551 782.62 1146.758 871.5070000000001 1209.256 919.0450000000001 1272.87 967.432 1360.202 967.635 1440 963.126" fill="#10182a"></path></g><defs><mask id="SvgjsMask1057"><rect width="1440" height="560" fill="#ffffff"></rect></mask></defs></svg>